<svg xmlns="http://www.w3.org/2000/svg" xmlns:xlink="http://www.w3.org/1999/xlink" xmlns:lucid="lucid" width="1493" height="1979"><g transform="translate(3204 0)" lucid:page-tab-id="0_0"><path d="M-5000 0H500v2000h-5500z" fill="#fff"/><path d="M-2620 180c0 11.05-8.95 20-20 20s-20-8.95-20-20 8.95-20 20-20 20 8.95 20 20z" stroke="#3a414a" stroke-width="2"/><path d="M-3010 580c0 11.05-8.95 20-20 20s-20-8.95-20-20 8.95-20 20-20 20 8.95 20 20z" stroke="#3a414a" stroke-width="2" fill="#fff"/><path d="M-3018 580c0 6.63-5.37 12-12 12s-12-5.37-12-12 5.37-12 12-12 12 5.37 12 12z" stroke="#3a414a" stroke-width="2"/><path d="M-3115.4 383.84a2.17 2.17 0 0 1 1.4-3.84h168a6 6 0 0 1 6 6v48a6 6 0 0 1-6 6h-168a2.17 2.17 0 0 1-1.4-3.84l26.8-22.32a5 5 0 0 0 0-7.68z" stroke="#3a414a" stroke-width="2" fill="#fff"/><use xlink:href="#a" transform="matrix(1,0,0,1,-3084,388) translate(30.524691358024697 26.444444444444443)"/><path d="M-2705 300c-11.05 0-20 8.95-20 20v60c0 11.05 8.95 20 20 20h130c11.05 0 20-8.95 20-20v-60c0-11.05-8.95-20-20-20z" stroke="#3a414a" stroke-width="2" fill="#fff"/><use xlink:href="#b" transform="matrix(1,0,0,1,-2717,308) translate(39.22222222222222 19.77777777777778)"/><use xlink:href="#c" transform="matrix(1,0,0,1,-2717,308) translate(88.91358024691358 19.77777777777778)"/><use xlink:href="#d" transform="matrix(1,0,0,1,-2717,308) translate(3.6049382716049365 46.44444444444444)"/><use xlink:href="#e" transform="matrix(1,0,0,1,-2717,308) translate(109.65432098765432 46.44444444444444)"/><use xlink:href="#f" transform="matrix(1,0,0,1,-2717,308) translate(45.58024691358025 73.11111111111111)"/><use xlink:href="#g" transform="matrix(1,0,0,1,-2717,308) translate(59.098765432098766 73.11111111111111)"/><path d="M-2760 66a6 6 0 0 1 6-6h228a6 6 0 0 1 6 6v48a6 6 0 0 1-6 6h-228a6 6 0 0 1-6-6z" fill="none"/><use xlink:href="#h" transform="matrix(1,0,0,1,-2760,60) translate(48.96296296296296 42.66666666666667)"/><path d="M-2100 66a6 6 0 0 1 6-6h328a6 6 0 0 1 6 6v48a6 6 0 0 1-6 6h-328a6 6 0 0 1-6-6z" fill="none"/><use xlink:href="#i" transform="matrix(1,0,0,1,-2100,60) translate(2.8148148148148096 42.66666666666667)"/><use xlink:href="#j" transform="matrix(1,0,0,1,-2100,60) translate(127.11111111111111 42.66666666666667)"/><path d="M-1985 400c-11.05 0-20 8.95-20 20v60c0 11.05 8.95 20 20 20h130c11.05 0 20-8.95 20-20v-60c0-11.05-8.95-20-20-20z" stroke="#3a414a" stroke-width="2" fill="#fff"/><use xlink:href="#k" transform="matrix(1,0,0,1,-1997,408) translate(12.277777777777771 19.77777777777778)"/><use xlink:href="#l" transform="matrix(1,0,0,1,-1997,408) translate(54.25308641975308 19.77777777777778)"/><use xlink:href="#m" transform="matrix(1,0,0,1,-1997,408) translate(82.52469135802468 19.77777777777778)"/><use xlink:href="#n" transform="matrix(1,0,0,1,-1997,408) translate(10.395061728395063 46.44444444444444)"/><use xlink:href="#o" transform="matrix(1,0,0,1,-1997,408) translate(35.08641975308642 46.44444444444444)"/><use xlink:href="#p" transform="matrix(1,0,0,1,-1997,408) translate(99.28395061728395 46.44444444444444)"/><use xlink:href="#q" transform="matrix(1,0,0,1,-1997,408) translate(35.7037037037037 73.11111111111111)"/><path d="M-1900.25 139.75c0 10.9-8.84 19.75-19.75 19.75-10.9 0-19.75-8.84-19.75-19.75 0-10.9 8.84-19.75 19.75-19.75 10.9 0 19.75 8.84 19.75 19.75z" stroke="#3a414a" stroke-width="2" fill="#fff"/><path d="M-1920 159.5v49.3a20.7 20.7 0 0 0 3.2 11.07L-1880 278m-40-63.2l-40 63.2m0-98.75h80" stroke="#3a414a" stroke-width="2" fill="none"/><path d="M-1960 126a6 6 0 0 1 6-6h68a6 6 0 0 1 6 6v168a6 6 0 0 1-6 6h-68a6 6 0 0 1-6-6z" fill="none"/><use xlink:href="#r" transform="matrix(1,0,0,1,-2040,278) translate(78.7037037037037 17.77777777777778)"/><path d="M-1985 560c-11.05 0-20 8.95-20 20v60c0 11.05 8.95 20 20 20h130c11.05 0 20-8.95 20-20v-60c0-11.05-8.95-20-20-20z" stroke="#3a414a" stroke-width="2" fill="#fff"/><use xlink:href="#s" transform="matrix(1,0,0,1,-1997,568) translate(3.419753086419746 19.77777777777778)"/><use xlink:href="#t" transform="matrix(1,0,0,1,-1997,568) translate(113.5432098765432 19.77777777777778)"/><use xlink:href="#u" transform="matrix(1,0,0,1,-1997,568) translate(19.006172839506178 46.44444444444444)"/><use xlink:href="#n" transform="matrix(1,0,0,1,-1997,568) translate(97.95679012345678 46.44444444444444)"/><use xlink:href="#v" transform="matrix(1,0,0,1,-1997,568) translate(122.64814814814814 46.44444444444444)"/><use xlink:href="#w" transform="matrix(1,0,0,1,-1997,568) translate(56.62962962962963 73.11111111111111)"/><path d="M-1985 720c-11.05 0-20 8.95-20 20v60c0 11.05 8.95 20 20 20h130c11.05 0 20-8.95 20-20v-60c0-11.05-8.95-20-20-20z" stroke="#3a414a" stroke-width="2" fill="#fff"/><use xlink:href="#x" transform="matrix(1,0,0,1,-1997,728) translate(2.339506172839492 33.111111111111114)"/><use xlink:href="#y" transform="matrix(1,0,0,1,-1997,728) translate(60.36419753086418 33.111111111111114)"/><use xlink:href="#z" transform="matrix(1,0,0,1,-1997,728) translate(78.88271604938271 33.111111111111114)"/><use xlink:href="#A" transform="matrix(1,0,0,1,-1997,728) translate(133.14197530864197 33.111111111111114)"/><use xlink:href="#B" transform="matrix(1,0,0,1,-1997,728) translate(51.72222222222222 59.77777777777778)"/><path d="M-2705 720c-11.05 0-20 8.95-20 20v60c0 11.05 8.95 20 20 20h130c11.05 0 20-8.95 20-20v-60c0-11.05-8.95-20-20-20z" stroke="#3a414a" stroke-width="2" fill="#fff"/><use xlink:href="#C" transform="matrix(1,0,0,1,-2717,728) translate(33.23456790123457 19.77777777777778)"/><use xlink:href="#D" transform="matrix(1,0,0,1,-2717,728) translate(19.65432098765433 46.44444444444444)"/><use xlink:href="#E" transform="matrix(1,0,0,1,-2717,728) translate(103.48148148148148 46.44444444444444)"/><use xlink:href="#F" transform="matrix(1,0,0,1,-2717,728) translate(28.913580246913583 73.11111111111111)"/><use xlink:href="#G" transform="matrix(1,0,0,1,-2717,728) translate(77 73.11111111111111)"/><path d="M-2705 900c-11.05 0-20 8.95-20 20v60c0 11.05 8.95 20 20 20h130c11.05 0 20-8.95 20-20v-60c0-11.05-8.95-20-20-20z" stroke="#3a414a" stroke-width="2" fill="#fff"/><use xlink:href="#H" transform="matrix(1,0,0,1,-2717,908) translate(15.919753086419753 19.77777777777778)"/><use xlink:href="#t" transform="matrix(1,0,0,1,-2717,908) translate(101.04320987654322 19.77777777777778)"/><use xlink:href="#I" transform="matrix(1,0,0,1,-2717,908) translate(3.635802469135797 46.44444444444444)"/><use xlink:href="#J" transform="matrix(1,0,0,1,-2717,908) translate(59.12962962962962 46.44444444444444)"/><use xlink:href="#K" transform="matrix(1,0,0,1,-2717,908) translate(131.84567901234567 46.44444444444444)"/><use xlink:href="#L" transform="matrix(1,0,0,1,-2717,908) translate(25.796296296296305 73.11111111111111)"/><use xlink:href="#M" transform="matrix(1,0,0,1,-2717,908) translate(86.2283950617284 73.11111111111111)"/><path d="M-3140 1080c-11.05 0-20 8.95-20 20v60c0 11.05 8.95 20 20 20h130c11.05 0 20-8.95 20-20v-60c0-11.05-8.95-20-20-20z" stroke="#3a414a" stroke-width="2" fill="#fff"/><use xlink:href="#N" transform="matrix(1,0,0,1,-3152,1088) translate(29.53086419753086 19.77777777777778)"/><use xlink:href="#c" transform="matrix(1,0,0,1,-3152,1088) translate(98.60493827160494 19.77777777777778)"/><use xlink:href="#O" transform="matrix(1,0,0,1,-3152,1088) translate(23.35802469135802 46.44444444444444)"/><use xlink:href="#P" transform="matrix(1,0,0,1,-3152,1088) translate(11.012345679012356 73.11111111111111)"/><use xlink:href="#Q" transform="matrix(1,0,0,1,-3152,1088) translate(76.38271604938272 73.11111111111111)"/><use xlink:href="#R" transform="matrix(1,0,0,1,-3152,1088) translate(99.77777777777779 73.11111111111111)"/><path d="M-2710 1080c-11.05 0-20 8.95-20 20v60c0 11.05 8.95 20 20 20h130c11.05 0 20-8.95 20-20v-60c0-11.05-8.95-20-20-20z" stroke="#3a414a" stroke-width="2" fill="#fff"/><use xlink:href="#N" transform="matrix(1,0,0,1,-2722,1088) translate(29.53086419753086 19.77777777777778)"/><use xlink:href="#c" transform="matrix(1,0,0,1,-2722,1088) translate(98.60493827160494 19.77777777777778)"/><use xlink:href="#S" transform="matrix(1,0,0,1,-2722,1088) translate(24.03703703703703 46.44444444444444)"/><use xlink:href="#T" transform="matrix(1,0,0,1,-2722,1088) translate(43.69753086419753 73.11111111111111)"/><path d="M-2280 1080c-11.05 0-20 8.95-20 20v60c0 11.05 8.95 20 20 20h130c11.05 0 20-8.95 20-20v-60c0-11.05-8.95-20-20-20z" stroke="#3a414a" stroke-width="2" fill="#fff"/><use xlink:href="#N" transform="matrix(1,0,0,1,-2292,1088) translate(29.53086419753086 33.111111111111114)"/><use xlink:href="#c" transform="matrix(1,0,0,1,-2292,1088) translate(98.60493827160494 33.111111111111114)"/><use xlink:href="#U" transform="matrix(1,0,0,1,-2292,1088) translate(44.932098765432094 59.77777777777778)"/><path d="M-3079.8 1243.6a8 8 0 0 1 9.6 0l70.4 52.8a4.5 4.5 0 0 1 0 7.2l-70.4 52.8a8 8 0 0 1-9.6 0l-70.4-52.8a4.5 4.5 0 0 1 0-7.2z" stroke="#3a414a" stroke-width="2" fill="#fff"/><use xlink:href="#V" transform="matrix(1,0,0,1,-3150,1245) translate(34.29512345679012 59.02777777777778)"/><use xlink:href="#W" transform="matrix(1,0,0,1,-3150,1245) translate(103.3691975308642 59.02777777777778)"/><path d="M-2644.8 1223.6a8 8 0 0 1 9.6 0l70.4 52.8a4.5 4.5 0 0 1 0 7.2l-70.4 52.8a8 8 0 0 1-9.6 0l-70.4-52.8a4.5 4.5 0 0 1 0-7.2z" stroke="#3a414a" stroke-width="2" fill="#fff"/><use xlink:href="#V" transform="matrix(1,0,0,1,-2715,1225) translate(34.29512345679012 59.02777777777778)"/><use xlink:href="#W" transform="matrix(1,0,0,1,-2715,1225) translate(103.3691975308642 59.02777777777778)"/><path d="M-2219.8 1223.6a8 8 0 0 1 9.6 0l70.4 52.8a4.5 4.5 0 0 1 0 7.2l-70.4 52.8a8 8 0 0 1-9.6 0l-70.4-52.8a4.5 4.5 0 0 1 0-7.2z" stroke="#3a414a" stroke-width="2" fill="#fff"/><use xlink:href="#V" transform="matrix(1,0,0,1,-2290,1225) translate(34.29512345679012 59.02777777777778)"/><use xlink:href="#W" transform="matrix(1,0,0,1,-2290,1225) translate(103.3691975308642 59.02777777777778)"/><path d="M-2640 201.5v83" stroke="#3a414a" fill="none"/><path d="M-2640.05 201l.53-.02v.53h-.95v-.55z" stroke="#3a414a" stroke-width=".05" fill="#3a414a"/><path d="M-2640 298l-7.5-13h15z" stroke="#3a414a" fill="#3a414a"/><path d="M-1920 217.17V384.5M-1920 216.67" stroke="#3a414a" fill="none"/><path d="M-1920 398l-7.5-13h15z" stroke="#3a414a" fill="#3a414a"/><path d="M-1920 501.5v43" stroke="#3a414a" fill="none"/><path d="M-1919.53 501.5h-.94v-.5h.94z" stroke="#3a414a" stroke-width=".05" fill="#3a414a"/><path d="M-1920 558l-7.5-13h15z" stroke="#3a414a" fill="#3a414a"/><path d="M-1920 661.5v43" stroke="#3a414a" fill="none"/><path d="M-1919.53 661.5h-.94v-.5h.94z" stroke="#3a414a" stroke-width=".05" fill="#3a414a"/><path d="M-1920 718l-7.5-13h15z" stroke="#3a414a" fill="#3a414a"/><path d="M-2006.5 770h-533" stroke="#3a414a" fill="none"/><path d="M-2006 770.48h-.5v-.96h.5z" stroke="#3a414a" stroke-width=".05" fill="#3a414a"/><path d="M-2553 770l13-7.5v15z" stroke="#3a414a" fill="#3a414a"/><path d="M-2640 821.5v63" stroke="#3a414a" fill="none"/><path d="M-2639.53 821.5h-.94v-.5h.94z" stroke="#3a414a" stroke-width=".05" fill="#3a414a"/><path d="M-2640 898l-7.5-13h15z" stroke="#3a414a" fill="#3a414a"/><path d="M-2640 1001.5v32.5a6 6 0 0 0 6 6h413a6 6 0 0 1 6 6v18.5" stroke="#3a414a" fill="none"/><path d="M-2639.53 1001.5h-.94v-.5h.94z" stroke="#3a414a" stroke-width=".05" fill="#3a414a"/><path d="M-2215 1078l-7.5-13h15z" stroke="#3a414a" fill="#3a414a"/><path d="M-2640 1001.5v63" stroke="#3a414a" fill="none"/><path d="M-2639.53 1001.5h-.94v-.5h.94z" stroke="#3a414a" stroke-width=".05" fill="#3a414a"/><path d="M-2640 1078l-7.5-13h15z" stroke="#3a414a" fill="#3a414a"/><path d="M-2640 1001.5v32.5a6 6 0 0 1-6 6h-423a6 6 0 0 0-6 6v18.5" stroke="#3a414a" fill="none"/><path d="M-2639.53 1001.5h-.94v-.5h.94z" stroke="#3a414a" stroke-width=".05" fill="#3a414a"/><path d="M-3075 1078l-7.5-13h15z" stroke="#3a414a" fill="#3a414a"/><path d="M-3075 1181.5v45" stroke="#3a414a" fill="none"/><path d="M-3074.53 1181.5h-.94v-.5h.94z" stroke="#3a414a" stroke-width=".05" fill="#3a414a"/><path d="M-3075 1240l-7.5-13h15z" stroke="#3a414a" fill="#3a414a"/><path d="M-2645 1181.5v26.55" stroke="#3a414a" fill="none"/><path d="M-2644.53 1181.5h-.94v-.5h.94z" stroke="#3a414a" stroke-width=".05" fill="#3a414a"/><path d="M-2645 1221.54l-7.5-13h15z" stroke="#3a414a" fill="#3a414a"/><path d="M-2215 1181.5v25" stroke="#3a414a" fill="none"/><path d="M-2214.53 1181.5h-.94v-.5h.94z" stroke="#3a414a" stroke-width=".05" fill="#3a414a"/><path d="M-2215 1220l-7.5-13h15z" stroke="#3a414a" fill="#3a414a"/><path d="M-3074.03 1523.96l.07.83.18.75.3.73.42.67.5.6.6.5.68.42.73.3.76.2.84.06h65.15v1.94h-65.24l-1.05-.08-1.06-.26-1-.42-.94-.58-.83-.7-.72-.84-.57-.93-.42-1-.25-1.08-.07-1.06V1360h1.94zm327.04 5.07v1.94h-226.2v-1.94z" stroke="#008a0e" stroke-width=".05" fill="#008a0e"/><path d="M-3075 1359l.97-.06v1.1h-1.94v-1.1z" fill="#008a0e"/><path stroke="#008a0e" stroke-width=".05" fill="#008a0e"/><path d="M-2733 1530l-13 7.5v-15z" fill="#008a0e"/><path d="M-2731.05 1530l-15.9 9.2-.02-18.4zm-13.96 5.8l10.05-5.8-10.07-5.8z" stroke="#008a0e" stroke-width=".05" fill="#008a0e"/><use xlink:href="#X" transform="matrix(1,0,0,1,-3003.807615130102,1519.3333333333333) translate(0 14.222222222222223)"/><path d="M-2980.9 1299.1l1.06.26 1 .42.95.58.84.7.7.84.58.93.42 1 .26 1.08.08 1.06v68l.06.83.2.75.3.73.4.67.5.6.6.5.68.42.73.3.77.2.82.06h610.16v1.94h-610.23l-1.06-.08-1.05-.26-1-.42-.95-.58-.83-.7-.7-.84-.58-.93-.43-1-.26-1.08-.07-1.06v-68l-.07-.83-.18-.75-.3-.73-.4-.67-.53-.6-.6-.5-.67-.42-.72-.3-.77-.2-.83-.06H-2996v-1.94h14.04zm828.6 81.88h-183.9v-1.95h183.9zm233.28-6.94l-.1 1.05-.24 1.06-.42 1-.58.94-.7.83-.84.7-.93.6-1 .4-1.08.26-1.06.07h-202.74v-1.94h202.66l.83-.07.75-.18.73-.3.67-.42.6-.5.5-.6.42-.68.3-.73.2-.76.06-.84v-83.3h1.94zm0-104.7h-1.95v-174.35h1.94z" stroke="#e81313" stroke-width=".05" fill="#e81313"/><path d="M-2995.97 1300.97h-1.12l.1-.97-.1-.97h1.13z" fill="#e81313"/><path stroke="#e81313" stroke-width=".05" fill="#e81313"/><path d="M-1912.5 1094h-15l7.5-13z" fill="#e81313"/><path d="M-1910.8 1094.97h-18.4l9.2-15.92zm-15-1.95h11.6l-5.8-10.07z" stroke="#e81313" stroke-width=".05" fill="#e81313"/><use xlink:href="#Y" transform="matrix(1,0,0,1,-2359.8013595138777,1369.3333333333333) translate(0 14.222222222222223)"/><path d="M-2639.03 1463h-1.94v-43.33h1.94zm0-64.67h-1.94V1340h1.94z" stroke="#008a0e" stroke-width=".05" fill="#008a0e"/><path d="M-2640 1339l.97-.06v1.1h-1.94v-1.1z" fill="#008a0e"/><path stroke="#008a0e" stroke-width=".05" fill="#008a0e"/><path d="M-2640 1477l-7.5-13h15z" fill="#008a0e"/><path d="M-2640 1478.95l-9.2-15.9h18.4zm-5.8-13.97l5.8 10.07 5.8-10.07z" stroke="#008a0e" stroke-width=".05" fill="#008a0e"/><use xlink:href="#X" transform="matrix(1,0,0,1,-2655.3086419753085,1398.3343601785398) translate(0 14.222222222222223)"/><path d="M-2544.9 1279.1l1.06.26 1 .42.95.58.84.7.7.84.58.93.42 1 .26 1.08.08 1.06v88l.06.83.2.75.3.73.4.67.5.6.6.5.68.42.73.3.77.2.82.06h174.16v1.94h-174.23l-1.06-.08-1.05-.26-1-.42-.95-.58-.83-.7-.7-.84-.58-.93-.43-1-.26-1.08-.07-1.06v-88l-.07-.83-.18-.75-.3-.73-.4-.67-.53-.6-.6-.5-.67-.42-.72-.3-.77-.2-.83-.06H-2561v-1.94h15.04zm392.6 101.88h-183.9v-1.95h183.9zm233.28-6.94l-.1 1.05-.24 1.06-.42 1-.58.94-.7.83-.84.7-.93.6-1 .4-1.08.26-1.06.07h-202.74v-1.94h202.66l.83-.07.75-.18.73-.3.67-.42.6-.5.5-.6.42-.68.3-.73.2-.76.06-.84v-83.3h1.94zm0-104.7h-1.95v-174.35h1.94z" stroke="#e81313" stroke-width=".05" fill="#e81313"/><path d="M-2560.97 1280.97h-1.12l.1-.97-.1-.97h1.13z" fill="#e81313"/><path stroke="#e81313" stroke-width=".05" fill="#e81313"/><path d="M-1912.5 1094h-15l7.5-13z" fill="#e81313"/><path d="M-1910.8 1094.97h-18.4l9.2-15.92zm-15-1.95h11.6l-5.8-10.07z" stroke="#e81313" stroke-width=".05" fill="#e81313"/><use xlink:href="#Z" transform="matrix(1,0,0,1,-2152.3013595138777,1369.3333333333333) translate(0 14.222222222222223)"/><path d="M-2306.8 1530.97H-2543v-1.94h236.2zm92.78-6.93l-.1 1.05-.24 1.06-.42 1-.57.94-.72.83-.83.7-.93.6-1 .4-1.08.26-1.06.07h-55.23v-1.94h55.16l.83-.07.75-.18.73-.3.67-.42.6-.5.5-.6.42-.68.3-.73.2-.76.06-.84V1340h1.94z" stroke="#008a0e" stroke-width=".05" fill="#008a0e"/><path d="M-2215 1339l.97-.06v1.1h-1.94v-1.1z" fill="#008a0e"/><path stroke="#008a0e" stroke-width=".05" fill="#008a0e"/><path d="M-2544 1537.5l-13-7.5 13-7.5z" fill="#008a0e"/><path d="M-2543.03 1539.2l-15.92-9.2 15.9-9.2zm-12.02-9.2l10.07 5.8v-11.6z" stroke="#008a0e" stroke-width=".05" fill="#008a0e"/><use xlink:href="#X" transform="matrix(1,0,0,1,-2306.809668820515,1519.3333333333333) translate(0 14.222222222222223)"/><path d="M-1939.8 1280.97H-2136v-1.94h196.2zm20.77-11.64h-1.94V1095h1.94z" stroke="#e81313" stroke-width=".05" fill="#e81313"/><path d="M-2135.97 1280.97h-1.12l.1-.97-.1-.97h1.13z" fill="#e81313"/><path stroke="#e81313" stroke-width=".05" fill="#e81313"/><path d="M-1912.5 1094h-15l7.5-13z" fill="#e81313"/><path d="M-1910.8 1094.97h-18.4l9.2-15.92zm-15-1.95h11.6l-5.8-10.07z" stroke="#e81313" stroke-width=".05" fill="#e81313"/><g><use xlink:href="#Y" transform="matrix(1,0,0,1,-1939.801359513878,1269.3333333333333) translate(0 14.222222222222223)"/></g><path d="M-2710 1480c-11.05 0-20 8.95-20 20v60c0 11.05 8.95 20 20 20h130c11.05 0 20-8.95 20-20v-60c0-11.05-8.95-20-20-20z" stroke="#3a414a" stroke-width="2" fill="#fff"/><g><use xlink:href="#aa" transform="matrix(1,0,0,1,-2722,1488) translate(25.796296296296298 33.111111111111114)"/><use xlink:href="#ab" transform="matrix(1,0,0,1,-2722,1488) translate(26.41358024691357 59.77777777777778)"/></g><path d="M-2701 1675c-7.18 0-13 5.82-13 13v39c0 7.18 5.82 13 13 13h122c7.18 0 13-5.82 13-13v-39c0-7.18-5.82-13-13-13z" stroke="#3a414a" stroke-width="2" fill="#fff"/><g><use xlink:href="#ac" transform="matrix(1,0,0,1,-2706,1683) translate(4.950617283950621 17.77777777777778)"/><use xlink:href="#t" transform="matrix(1,0,0,1,-2706,1683) translate(90.01234567901234 17.77777777777778)"/><use xlink:href="#ad" transform="matrix(1,0,0,1,-2706,1683) translate(51.21604938271605 44.44444444444444)"/></g><path d="M-2645 1581.5v78" stroke="#3a414a" fill="none"/><path d="M-2644.53 1581.5h-.94v-.5h.94z" stroke="#3a414a" stroke-width=".05" fill="#3a414a"/><path d="M-2645 1673l-7.5-13h15z" stroke="#3a414a" fill="#3a414a"/><path d="M-2650.8 1803.6a8 8 0 0 1 9.6 0l70.4 52.8a4.5 4.5 0 0 1 0 7.2l-70.4 52.8a8 8 0 0 1-9.6 0l-70.4-52.8a4.5 4.5 0 0 1 0-7.2z" stroke="#3a414a" stroke-width="2" fill="#fff"/><g><use xlink:href="#ae" transform="matrix(1,0,0,1,-2721,1805) translate(30 46.111111111111114)"/><use xlink:href="#af" transform="matrix(1,0,0,1,-2721,1805) translate(68.20987654320987 46.111111111111114)"/><use xlink:href="#ag" transform="matrix(1,0,0,1,-2721,1805) translate(36.2037037037037 72.77777777777777)"/></g><path d="M-2387 1827.5c-7.18 0-13 5.82-13 13v39c0 7.18 5.82 13 13 13h122c7.18 0 13-5.82 13-13v-39c0-7.18-5.82-13-13-13z" stroke="#3a414a" stroke-width="2" fill="#fff"/><g><use xlink:href="#ah" transform="matrix(1,0,0,1,-2392,1835.5) translate(40.074074074074076 28.944444444444443)"/></g><path d="M-2499.8 1860.97h-67.2v-1.94h67.2zm82.8 0h-52.2v-1.94h52.2z" stroke="#008a0e" stroke-width=".05" fill="#008a0e"/><path d="M-2566.97 1860.97h-1.12l.1-.97-.1-.97h1.13z" fill="#008a0e"/><path stroke="#008a0e" stroke-width=".05" fill="#008a0e"/><path d="M-2403 1860l-13 7.5v-15z" fill="#008a0e"/><path d="M-2401.05 1860l-15.9 9.2-.02-18.4zm-13.96 5.8l10.05-5.8-10.07-5.8z" stroke="#008a0e" stroke-width=".05" fill="#008a0e"/><g><use xlink:href="#X" transform="matrix(1,0,0,1,-2499.8065055081775,1849.3333333333333) translate(0 14.222222222222223)"/></g><path d="M-2640 1741.5v47.26" stroke="#3a414a" fill="none"/><path d="M-2639.53 1741.5h-.94v-.5h.94z" stroke="#3a414a" stroke-width=".05" fill="#3a414a"/><path d="M-2640 1802.25l-7.5-13h15z" stroke="#3a414a" fill="#3a414a"/><path d="M-1924.8 963.6a8 8 0 0 1 9.6 0l70.4 52.8a4.5 4.5 0 0 1 0 7.2l-70.4 52.8a8 8 0 0 1-9.6 0l-70.4-52.8a4.5 4.5 0 0 1 0-7.2z" stroke="#3a414a" stroke-width="2" fill="#fff"/><g><use xlink:href="#ai" transform="matrix(1,0,0,1,-1995,965) translate(30.59141975308641 45.78777777777778)"/><use xlink:href="#W" transform="matrix(1,0,0,1,-1995,965) translate(68.83216049382716 72.45444444444445)"/></g><path d="M-1919.03 960h-1.94v-58.33h1.94zm0-79.67h-1.94V837h1.94z" stroke="#008a0e" stroke-width=".05" fill="#008a0e"/><path d="M-1919.03 961.06l-.97-.06-.97.06v-1.1h1.94z" fill="#008a0e"/><path stroke="#008a0e" stroke-width=".05" fill="#008a0e"/><path d="M-1912.5 836h-15l7.5-13z" fill="#008a0e"/><path d="M-1910.8 836.97h-18.4l9.2-15.92zm-15-1.96h11.6l-5.8-10.05z" stroke="#008a0e" stroke-width=".05" fill="#008a0e"/><g><use xlink:href="#X" transform="matrix(1,0,0,1,-1935.3086419753085,880.3323064881268) translate(0 14.222222222222223)"/></g><path d="M-2275.1 1013.96l.05.83.2.75.3.73.4.67.5.6.6.5.7.43.7.3.78.18.82.06H-1999v1.96h-271.12l-1.06-.1-1.06-.24-1-.42-.95-.58-.82-.7-.7-.84-.58-.93-.42-1-.26-1.08-.08-1.06v-92.32h1.95zm-5.9-212.74l1.07.26 1 .4.95.6.83.7.7.83.58.95.42 1 .26 1.07.1 1.05v92.32h-1.96v-92.25l-.07-.82-.18-.77-.3-.73-.42-.67-.5-.6-.6-.5-.68-.42-.73-.3-.77-.2-.82-.05h-256.06v-1.96h256.13z" stroke="#e81313" stroke-width=".05" fill="#e81313"/><path d="M-1998 1020l.1.98h-1.13V1019h1.12z" fill="#e81313"/><path stroke="#e81313" stroke-width=".05" fill="#e81313"/><path d="M-2539.18 809.6l-13-7.5 13-7.5z" fill="#e81313"/><path d="M-2538.2 811.3l-15.9-9.2 15.9-9.18zm-12.02-9.2l10.07 5.82V796.3z" stroke="#e81313" stroke-width=".05" fill="#e81313"/><g><use xlink:href="#Y" transform="matrix(1,0,0,1,-2287.887325480723,900.3896654399708) translate(0 14.222222222222223)"/></g><path d="M-3028.65 441.5v103.17" stroke="#3a414a" fill="none"/><path d="M-3028.17 441.5h-.95v-.5h.95z" stroke="#3a414a" stroke-width=".05" fill="#3a414a"/><path d="M-3028.65 558.16l-7.5-13h15z" stroke="#3a414a" fill="#3a414a"/><defs><path d="M185-189c-5-48-123-54-124 2 14 75 158 14 163 119 3 78-121 87-175 55-17-10-28-26-33-46l33-7c5 56 141 63 141-1 0-78-155-14-162-118-5-82 145-84 179-34 5 7 8 16 11 25" id="aj"/><path d="M33 0v-248h34V0H33" id="ak"/><path d="M143 4C61 4 22-44 18-125c-5-107 100-154 193-111 17 8 29 25 37 43l-32 9c-13-25-37-40-76-40-61 0-88 39-88 99 0 61 29 100 91 101 35 0 62-11 79-27v-45h-74v-28h105v86C228-13 192 4 143 4" id="al"/><path d="M190 0L58-211 59 0H30v-248h39L202-35l-2-213h31V0h-41" id="am"/><path d="M127-220V0H93v-220H8v-28h204v28h-85" id="an"/><g id="a"><use transform="matrix(0.06172839506172839,0,0,0.06172839506172839,0,0)" xlink:href="#aj"/><use transform="matrix(0.06172839506172839,0,0,0.06172839506172839,14.814814814814813,0)" xlink:href="#ak"/><use transform="matrix(0.06172839506172839,0,0,0.06172839506172839,20.98765432098765,0)" xlink:href="#al"/><use transform="matrix(0.06172839506172839,0,0,0.06172839506172839,38.2716049382716,0)" xlink:href="#ak"/><use transform="matrix(0.06172839506172839,0,0,0.06172839506172839,44.44444444444444,0)" xlink:href="#am"/><use transform="matrix(0.06172839506172839,0,0,0.06172839506172839,60.432098765432094,0)" xlink:href="#an"/></g><path d="M266 0h-40l-56-210L115 0H75L2-248h35L96-30l15-64 43-154h32l59 218 59-218h35" id="ao"/><path d="M141-36C126-15 110 5 73 4 37 3 15-17 15-53c-1-64 63-63 125-63 3-35-9-54-41-54-24 1-41 7-42 31l-33-3c5-37 33-52 76-52 45 0 72 20 72 64v82c-1 20 7 32 28 27v20c-31 9-61-2-59-35zM48-53c0 20 12 33 32 33 41-3 63-29 60-74-43 2-92-5-92 41" id="ap"/><path d="M24-231v-30h32v30H24zM24 0v-190h32V0H24" id="aq"/><path d="M59-47c-2 24 18 29 38 22v24C64 9 27 4 27-40v-127H5v-23h24l9-43h21v43h35v23H59v120" id="ar"/><g id="b"><use transform="matrix(0.06172839506172839,0,0,0.06172839506172839,0,0)" xlink:href="#ao"/><use transform="matrix(0.06172839506172839,0,0,0.06172839506172839,20.123456790123456,0)" xlink:href="#ap"/><use transform="matrix(0.06172839506172839,0,0,0.06172839506172839,32.46913580246913,0)" xlink:href="#aq"/><use transform="matrix(0.06172839506172839,0,0,0.06172839506172839,37.34567901234568,0)" xlink:href="#ar"/></g><path d="M101-234c-31-9-42 10-38 44h38v23H63V0H32v-167H5v-23h27c-7-52 17-82 69-68v24" id="as"/><path d="M100-194c62-1 85 37 85 99 1 63-27 99-86 99S16-35 15-95c0-66 28-99 85-99zM99-20c44 1 53-31 53-75 0-43-8-75-51-75s-53 32-53 75 10 74 51 75" id="at"/><path d="M114-163C36-179 61-72 57 0H25l-1-190h30c1 12-1 29 2 39 6-27 23-49 58-41v29" id="au"/><g id="c"><use transform="matrix(0.06172839506172839,0,0,0.06172839506172839,0,0)" xlink:href="#as"/><use transform="matrix(0.06172839506172839,0,0,0.06172839506172839,6.172839506172839,0)" xlink:href="#at"/><use transform="matrix(0.06172839506172839,0,0,0.06172839506172839,18.51851851851852,0)" xlink:href="#au"/></g><path d="M117-194c89-4 53 116 60 194h-32v-121c0-31-8-49-39-48C34-167 62-67 57 0H25l-1-190h30c1 10-1 24 2 32 11-22 29-35 61-36" id="av"/><path d="M135-143c-3-34-86-38-87 0 15 53 115 12 119 90S17 21 10-45l28-5c4 36 97 45 98 0-10-56-113-15-118-90-4-57 82-63 122-42 12 7 21 19 24 35" id="aw"/><path d="M115-194c55 1 70 41 70 98S169 2 115 4C84 4 66-9 55-30l1 105H24l-1-265h31l2 30c10-21 28-34 59-34zm-8 174c40 0 45-34 45-75s-6-73-45-74c-42 0-51 32-51 76 0 43 10 73 51 73" id="ax"/><path d="M100-194c63 0 86 42 84 106H49c0 40 14 67 53 68 26 1 43-12 49-29l28 8c-11 28-37 45-77 45C44 4 14-33 15-96c1-61 26-98 85-98zm52 81c6-60-76-77-97-28-3 7-6 17-6 28h103" id="ay"/><path d="M96-169c-40 0-48 33-48 73s9 75 48 75c24 0 41-14 43-38l32 2c-6 37-31 61-74 61-59 0-76-41-82-99-10-93 101-131 147-64 4 7 5 14 7 22l-32 3c-4-21-16-35-41-35" id="az"/><g id="d"><use transform="matrix(0.06172839506172839,0,0,0.06172839506172839,0,0)" xlink:href="#aq"/><use transform="matrix(0.06172839506172839,0,0,0.06172839506172839,4.876543209876543,0)" xlink:href="#av"/><use transform="matrix(0.06172839506172839,0,0,0.06172839506172839,17.22222222222222,0)" xlink:href="#aw"/><use transform="matrix(0.06172839506172839,0,0,0.06172839506172839,28.333333333333332,0)" xlink:href="#ax"/><use transform="matrix(0.06172839506172839,0,0,0.06172839506172839,40.67901234567901,0)" xlink:href="#ay"/><use transform="matrix(0.06172839506172839,0,0,0.06172839506172839,53.02469135802469,0)" xlink:href="#az"/><use transform="matrix(0.06172839506172839,0,0,0.06172839506172839,64.1358024691358,0)" xlink:href="#ar"/><use transform="matrix(0.06172839506172839,0,0,0.06172839506172839,70.30864197530863,0)" xlink:href="#aq"/><use transform="matrix(0.06172839506172839,0,0,0.06172839506172839,75.18518518518518,0)" xlink:href="#at"/><use transform="matrix(0.06172839506172839,0,0,0.06172839506172839,87.53086419753086,0)" xlink:href="#av"/></g><path d="M143 0L79-87 56-68V0H24v-261h32v163l83-92h37l-77 82L181 0h-38" id="aA"/><g id="e"><use transform="matrix(0.06172839506172839,0,0,0.06172839506172839,0,0)" xlink:href="#ar"/><use transform="matrix(0.06172839506172839,0,0,0.06172839506172839,6.172839506172839,0)" xlink:href="#ap"/><use transform="matrix(0.06172839506172839,0,0,0.06172839506172839,18.51851851851852,0)" xlink:href="#aw"/><use transform="matrix(0.06172839506172839,0,0,0.06172839506172839,29.62962962962963,0)" xlink:href="#aA"/></g><path d="M16-82v-28h88v28H16" id="aB"/><use transform="matrix(0.06172839506172839,0,0,0.06172839506172839,0,0)" xlink:href="#aB" id="f"/><path d="M30-248c118-7 216 8 213 122C240-48 200 0 122 0H30v-248zM63-27c89 8 146-16 146-99s-60-101-146-95v194" id="aC"/><path d="M30 0v-248h33v221h125V0H30" id="aD"/><path d="M30 0v-248h187v28H63v79h144v27H63v87h162V0H30" id="aE"/><g id="g"><use transform="matrix(0.06172839506172839,0,0,0.06172839506172839,0,0)" xlink:href="#ak"/><use transform="matrix(0.06172839506172839,0,0,0.06172839506172839,6.172839506172839,0)" xlink:href="#aC"/><use transform="matrix(0.06172839506172839,0,0,0.06172839506172839,22.160493827160494,0)" xlink:href="#aD"/><use transform="matrix(0.06172839506172839,0,0,0.06172839506172839,34.50617283950617,0)" xlink:href="#aE"/></g><path d="M233-177c-1 41-23 64-60 70L243 0h-38l-65-103H63V0H30v-248c88 3 205-21 203 71zM63-129c60-2 137 13 137-47 0-61-80-42-137-45v92" id="aF"/><path d="M115-194c53 0 69 39 70 98 0 66-23 100-70 100C84 3 66-7 56-30L54 0H23l1-261h32v101c10-23 28-34 59-34zm-8 174c40 0 45-34 45-75 0-40-5-75-45-74-42 0-51 32-51 76 0 43 10 73 51 73" id="aG"/><g id="h"><use transform="matrix(0.14814814814814817,0,0,0.14814814814814817,0,0)" xlink:href="#aF"/><use transform="matrix(0.14814814814814817,0,0,0.14814814814814817,38.370370370370374,0)" xlink:href="#at"/><use transform="matrix(0.14814814814814817,0,0,0.14814814814814817,68,0)" xlink:href="#aG"/><use transform="matrix(0.14814814814814817,0,0,0.14814814814814817,97.62962962962962,0)" xlink:href="#at"/><use transform="matrix(0.14814814814814817,0,0,0.14814814814814817,127.25925925925925,0)" xlink:href="#ar"/></g><g id="i"><use transform="matrix(0.14814814814814817,0,0,0.14814814814814817,0,0)" xlink:href="#an"/><use transform="matrix(0.14814814814814817,0,0,0.14814814814814817,26.518518518518523,0)" xlink:href="#ap"/><use transform="matrix(0.14814814814814817,0,0,0.14814814814814817,56.14814814814815,0)" xlink:href="#aw"/><use transform="matrix(0.14814814814814817,0,0,0.14814814814814817,82.81481481481482,0)" xlink:href="#aA"/></g><path d="M240 0l2-218c-23 76-54 145-80 218h-23L58-218 59 0H30v-248h44l77 211c21-75 51-140 76-211h43V0h-30" id="aH"/><path d="M177-190C167-65 218 103 67 71c-23-6-38-20-44-43l32-5c15 47 100 32 89-28v-30C133-14 115 1 83 1 29 1 15-40 15-95c0-56 16-97 71-98 29-1 48 16 59 35 1-10 0-23 2-32h30zM94-22c36 0 50-32 50-73 0-42-14-75-50-75-39 0-46 34-46 75s6 73 46 73" id="aI"/><g id="j"><use transform="matrix(0.14814814814814817,0,0,0.14814814814814817,0,0)" xlink:href="#aH"/><use transform="matrix(0.14814814814814817,0,0,0.14814814814814817,44.296296296296305,0)" xlink:href="#ap"/><use transform="matrix(0.14814814814814817,0,0,0.14814814814814817,73.92592592592594,0)" xlink:href="#av"/><use transform="matrix(0.14814814814814817,0,0,0.14814814814814817,103.55555555555557,0)" xlink:href="#ap"/><use transform="matrix(0.14814814814814817,0,0,0.14814814814814817,133.18518518518522,0)" xlink:href="#aI"/><use transform="matrix(0.14814814814814817,0,0,0.14814814814814817,162.81481481481484,0)" xlink:href="#ay"/><use transform="matrix(0.14814814814814817,0,0,0.14814814814814817,192.44444444444446,0)" xlink:href="#au"/></g><g id="k"><use transform="matrix(0.06172839506172839,0,0,0.06172839506172839,0,0)" xlink:href="#al"/><use transform="matrix(0.06172839506172839,0,0,0.06172839506172839,17.28395061728395,0)" xlink:href="#ay"/><use transform="matrix(0.06172839506172839,0,0,0.06172839506172839,29.629629629629626,0)" xlink:href="#ar"/></g><path d="M24 0v-261h32V0H24" id="aJ"/><g id="l"><use transform="matrix(0.06172839506172839,0,0,0.06172839506172839,0,0)" xlink:href="#ap"/><use transform="matrix(0.06172839506172839,0,0,0.06172839506172839,12.345679012345679,0)" xlink:href="#aJ"/><use transform="matrix(0.06172839506172839,0,0,0.06172839506172839,17.22222222222222,0)" xlink:href="#aJ"/></g><g id="m"><use transform="matrix(0.06172839506172839,0,0,0.06172839506172839,0,0)" xlink:href="#ax"/><use transform="matrix(0.06172839506172839,0,0,0.06172839506172839,12.345679012345679,0)" xlink:href="#at"/><use transform="matrix(0.06172839506172839,0,0,0.06172839506172839,24.691358024691358,0)" xlink:href="#aq"/><use transform="matrix(0.06172839506172839,0,0,0.06172839506172839,29.5679012345679,0)" xlink:href="#av"/><use transform="matrix(0.06172839506172839,0,0,0.06172839506172839,41.913580246913575,0)" xlink:href="#ar"/><use transform="matrix(0.06172839506172839,0,0,0.06172839506172839,48.08641975308642,0)" xlink:href="#aw"/></g><g id="n"><use transform="matrix(0.06172839506172839,0,0,0.06172839506172839,0,0)" xlink:href="#ar"/><use transform="matrix(0.06172839506172839,0,0,0.06172839506172839,6.172839506172839,0)" xlink:href="#at"/></g><path d="M106-169C34-169 62-67 57 0H25v-261h32l-1 103c12-21 28-36 61-36 89 0 53 116 60 194h-32v-121c2-32-8-49-39-48" id="aK"/><g id="o"><use transform="matrix(0.06172839506172839,0,0,0.06172839506172839,0,0)" xlink:href="#az"/><use transform="matrix(0.06172839506172839,0,0,0.06172839506172839,11.11111111111111,0)" xlink:href="#aK"/><use transform="matrix(0.06172839506172839,0,0,0.06172839506172839,23.45679012345679,0)" xlink:href="#ay"/><use transform="matrix(0.06172839506172839,0,0,0.06172839506172839,35.80246913580247,0)" xlink:href="#az"/><use transform="matrix(0.06172839506172839,0,0,0.06172839506172839,46.91358024691358,0)" xlink:href="#aA"/></g><path d="M210-169c-67 3-38 105-44 169h-31v-121c0-29-5-50-35-48C34-165 62-65 56 0H25l-1-190h30c1 10-1 24 2 32 10-44 99-50 107 0 11-21 27-35 58-36 85-2 47 119 55 194h-31v-121c0-29-5-49-35-48" id="aL"/><g id="p"><use transform="matrix(0.06172839506172839,0,0,0.06172839506172839,0,0)" xlink:href="#as"/><use transform="matrix(0.06172839506172839,0,0,0.06172839506172839,6.172839506172839,0)" xlink:href="#au"/><use transform="matrix(0.06172839506172839,0,0,0.06172839506172839,13.518518518518519,0)" xlink:href="#at"/><use transform="matrix(0.06172839506172839,0,0,0.06172839506172839,25.864197530864196,0)" xlink:href="#aL"/></g><g id="q"><use transform="matrix(0.06172839506172839,0,0,0.06172839506172839,0,0)" xlink:href="#at"/><use transform="matrix(0.06172839506172839,0,0,0.06172839506172839,12.345679012345679,0)" xlink:href="#ax"/><use transform="matrix(0.06172839506172839,0,0,0.06172839506172839,24.691358024691358,0)" xlink:href="#ay"/><use transform="matrix(0.06172839506172839,0,0,0.06172839506172839,37.03703703703704,0)" xlink:href="#au"/><use transform="matrix(0.06172839506172839,0,0,0.06172839506172839,44.382716049382715,0)" xlink:href="#ap"/><use transform="matrix(0.06172839506172839,0,0,0.06172839506172839,56.72839506172839,0)" xlink:href="#ar"/><use transform="matrix(0.06172839506172839,0,0,0.06172839506172839,62.901234567901234,0)" xlink:href="#at"/><use transform="matrix(0.06172839506172839,0,0,0.06172839506172839,75.24691358024691,0)" xlink:href="#au"/></g><g id="r"><use transform="matrix(0.06172839506172839,0,0,0.06172839506172839,0,0)" xlink:href="#at"/><use transform="matrix(0.06172839506172839,0,0,0.06172839506172839,12.345679012345679,0)" xlink:href="#ax"/><use transform="matrix(0.06172839506172839,0,0,0.06172839506172839,24.691358024691358,0)" xlink:href="#ay"/><use transform="matrix(0.06172839506172839,0,0,0.06172839506172839,37.03703703703704,0)" xlink:href="#au"/><use transform="matrix(0.06172839506172839,0,0,0.06172839506172839,44.382716049382715,0)" xlink:href="#ap"/><use transform="matrix(0.06172839506172839,0,0,0.06172839506172839,56.72839506172839,0)" xlink:href="#ar"/><use transform="matrix(0.06172839506172839,0,0,0.06172839506172839,62.901234567901234,0)" xlink:href="#at"/><use transform="matrix(0.06172839506172839,0,0,0.06172839506172839,75.24691358024691,0)" xlink:href="#au"/></g><g id="s"><use transform="matrix(0.06172839506172839,0,0,0.06172839506172839,0,0)" xlink:href="#an"/><use transform="matrix(0.06172839506172839,0,0,0.06172839506172839,12.716049382716047,0)" xlink:href="#au"/><use transform="matrix(0.06172839506172839,0,0,0.06172839506172839,20.061728395061728,0)" xlink:href="#ap"/><use transform="matrix(0.06172839506172839,0,0,0.06172839506172839,32.407407407407405,0)" xlink:href="#av"/><use transform="matrix(0.06172839506172839,0,0,0.06172839506172839,44.75308641975308,0)" xlink:href="#aw"/><use transform="matrix(0.06172839506172839,0,0,0.06172839506172839,55.86419753086419,0)" xlink:href="#ap"/><use transform="matrix(0.06172839506172839,0,0,0.06172839506172839,68.20987654320987,0)" xlink:href="#aJ"/><use transform="matrix(0.06172839506172839,0,0,0.06172839506172839,73.08641975308642,0)" xlink:href="#ap"/><use transform="matrix(0.06172839506172839,0,0,0.06172839506172839,85.4320987654321,0)" xlink:href="#ar"/><use transform="matrix(0.06172839506172839,0,0,0.06172839506172839,91.60493827160494,0)" xlink:href="#ay"/></g><path d="M85-194c31 0 48 13 60 33l-1-100h32l1 261h-30c-2-10 0-23-3-31C134-8 116 4 85 4 32 4 16-35 15-94c0-66 23-100 70-100zm9 24c-40 0-46 34-46 75 0 40 6 74 45 74 42 0 51-32 51-76 0-42-9-74-50-73" id="aM"/><g id="t"><use transform="matrix(0.06172839506172839,0,0,0.06172839506172839,0,0)" xlink:href="#ap"/><use transform="matrix(0.06172839506172839,0,0,0.06172839506172839,12.345679012345679,0)" xlink:href="#av"/><use transform="matrix(0.06172839506172839,0,0,0.06172839506172839,24.691358024691358,0)" xlink:href="#aM"/></g><path d="M108 0H70L1-190h34L89-25l56-165h34" id="aN"/><g id="u"><use transform="matrix(0.06172839506172839,0,0,0.06172839506172839,0,0)" xlink:href="#az"/><use transform="matrix(0.06172839506172839,0,0,0.06172839506172839,11.11111111111111,0)" xlink:href="#at"/><use transform="matrix(0.06172839506172839,0,0,0.06172839506172839,23.45679012345679,0)" xlink:href="#av"/><use transform="matrix(0.06172839506172839,0,0,0.06172839506172839,35.80246913580247,0)" xlink:href="#aN"/><use transform="matrix(0.06172839506172839,0,0,0.06172839506172839,46.91358024691358,0)" xlink:href="#ay"/><use transform="matrix(0.06172839506172839,0,0,0.06172839506172839,59.25925925925926,0)" xlink:href="#au"/><use transform="matrix(0.06172839506172839,0,0,0.06172839506172839,66.60493827160494,0)" xlink:href="#ar"/></g><use transform="matrix(0.06172839506172839,0,0,0.06172839506172839,0,0)" xlink:href="#ap" id="v"/><g id="w"><use transform="matrix(0.06172839506172839,0,0,0.06172839506172839,0,0)" xlink:href="#ar"/><use transform="matrix(0.06172839506172839,0,0,0.06172839506172839,6.172839506172839,0)" xlink:href="#ap"/><use transform="matrix(0.06172839506172839,0,0,0.06172839506172839,18.51851851851852,0)" xlink:href="#aw"/><use transform="matrix(0.06172839506172839,0,0,0.06172839506172839,29.62962962962963,0)" xlink:href="#aA"/></g><g id="x"><use transform="matrix(0.06172839506172839,0,0,0.06172839506172839,0,0)" xlink:href="#aj"/><use transform="matrix(0.06172839506172839,0,0,0.06172839506172839,14.814814814814813,0)" xlink:href="#ay"/><use transform="matrix(0.06172839506172839,0,0,0.06172839506172839,27.160493827160494,0)" xlink:href="#av"/><use transform="matrix(0.06172839506172839,0,0,0.06172839506172839,39.50617283950617,0)" xlink:href="#aM"/></g><use transform="matrix(0.06172839506172839,0,0,0.06172839506172839,0,0)" xlink:href="#ap" id="y"/><g id="z"><use transform="matrix(0.06172839506172839,0,0,0.06172839506172839,0,0)" xlink:href="#ax"/><use transform="matrix(0.06172839506172839,0,0,0.06172839506172839,12.345679012345679,0)" xlink:href="#at"/><use transform="matrix(0.06172839506172839,0,0,0.06172839506172839,24.691358024691358,0)" xlink:href="#aq"/><use transform="matrix(0.06172839506172839,0,0,0.06172839506172839,29.5679012345679,0)" xlink:href="#av"/><use transform="matrix(0.06172839506172839,0,0,0.06172839506172839,41.913580246913575,0)" xlink:href="#ar"/></g><g id="A"><use transform="matrix(0.06172839506172839,0,0,0.06172839506172839,0,0)" xlink:href="#ar"/><use transform="matrix(0.06172839506172839,0,0,0.06172839506172839,6.172839506172839,0)" xlink:href="#at"/></g><g id="B"><use transform="matrix(0.06172839506172839,0,0,0.06172839506172839,0,0)" xlink:href="#au"/><use transform="matrix(0.06172839506172839,0,0,0.06172839506172839,7.345679012345679,0)" xlink:href="#at"/><use transform="matrix(0.06172839506172839,0,0,0.06172839506172839,19.691358024691358,0)" xlink:href="#aG"/><use transform="matrix(0.06172839506172839,0,0,0.06172839506172839,32.03703703703704,0)" xlink:href="#at"/><use transform="matrix(0.06172839506172839,0,0,0.06172839506172839,44.382716049382715,0)" xlink:href="#ar"/></g><g id="C"><use transform="matrix(0.06172839506172839,0,0,0.06172839506172839,0,0)" xlink:href="#am"/><use transform="matrix(0.06172839506172839,0,0,0.06172839506172839,15.987654320987653,0)" xlink:href="#ap"/><use transform="matrix(0.06172839506172839,0,0,0.06172839506172839,28.333333333333332,0)" xlink:href="#aN"/><use transform="matrix(0.06172839506172839,0,0,0.06172839506172839,39.44444444444444,0)" xlink:href="#aq"/><use transform="matrix(0.06172839506172839,0,0,0.06172839506172839,44.32098765432099,0)" xlink:href="#aI"/><use transform="matrix(0.06172839506172839,0,0,0.06172839506172839,56.666666666666664,0)" xlink:href="#ap"/><use transform="matrix(0.06172839506172839,0,0,0.06172839506172839,69.01234567901234,0)" xlink:href="#ar"/><use transform="matrix(0.06172839506172839,0,0,0.06172839506172839,75.18518518518518,0)" xlink:href="#ay"/></g><path d="M206 0h-36l-40-164L89 0H53L-1-190h32L70-26l43-164h34l41 164 42-164h31" id="aO"/><g id="D"><use transform="matrix(0.06172839506172839,0,0,0.06172839506172839,0,0)" xlink:href="#ar"/><use transform="matrix(0.06172839506172839,0,0,0.06172839506172839,6.172839506172839,0)" xlink:href="#at"/><use transform="matrix(0.06172839506172839,0,0,0.06172839506172839,18.51851851851852,0)" xlink:href="#aO"/><use transform="matrix(0.06172839506172839,0,0,0.06172839506172839,34.50617283950617,0)" xlink:href="#ap"/><use transform="matrix(0.06172839506172839,0,0,0.06172839506172839,46.85185185185185,0)" xlink:href="#au"/><use transform="matrix(0.06172839506172839,0,0,0.06172839506172839,54.197530864197525,0)" xlink:href="#aM"/><use transform="matrix(0.06172839506172839,0,0,0.06172839506172839,66.5432098765432,0)" xlink:href="#aw"/></g><g id="E"><use transform="matrix(0.06172839506172839,0,0,0.06172839506172839,0,0)" xlink:href="#ar"/><use transform="matrix(0.06172839506172839,0,0,0.06172839506172839,6.172839506172839,0)" xlink:href="#aK"/><use transform="matrix(0.06172839506172839,0,0,0.06172839506172839,18.51851851851852,0)" xlink:href="#ay"/></g><g id="F"><use transform="matrix(0.06172839506172839,0,0,0.06172839506172839,0,0)" xlink:href="#aI"/><use transform="matrix(0.06172839506172839,0,0,0.06172839506172839,12.345679012345679,0)" xlink:href="#at"/><use transform="matrix(0.06172839506172839,0,0,0.06172839506172839,24.691358024691358,0)" xlink:href="#ap"/><use transform="matrix(0.06172839506172839,0,0,0.06172839506172839,37.03703703703704,0)" xlink:href="#aJ"/></g><g id="G"><use transform="matrix(0.06172839506172839,0,0,0.06172839506172839,0,0)" xlink:href="#ax"/><use transform="matrix(0.06172839506172839,0,0,0.06172839506172839,12.345679012345679,0)" xlink:href="#at"/><use transform="matrix(0.06172839506172839,0,0,0.06172839506172839,24.691358024691358,0)" xlink:href="#aq"/><use transform="matrix(0.06172839506172839,0,0,0.06172839506172839,29.5679012345679,0)" xlink:href="#av"/><use transform="matrix(0.06172839506172839,0,0,0.06172839506172839,41.913580246913575,0)" xlink:href="#ar"/></g><path d="M205 0l-28-72H64L36 0H1l101-248h38L239 0h-34zm-38-99l-47-123c-12 45-31 82-46 123h93" id="aP"/><path d="M179-190L93 31C79 59 56 82 12 73V49c39 6 53-20 64-50L1-190h34L92-34l54-156h33" id="aQ"/><path d="M9 0v-24l116-142H16v-24h144v24L44-24h123V0H9" id="aR"/><g id="H"><use transform="matrix(0.06172839506172839,0,0,0.06172839506172839,0,0)" xlink:href="#aP"/><use transform="matrix(0.06172839506172839,0,0,0.06172839506172839,14.814814814814813,0)" xlink:href="#av"/><use transform="matrix(0.06172839506172839,0,0,0.06172839506172839,27.160493827160494,0)" xlink:href="#ap"/><use transform="matrix(0.06172839506172839,0,0,0.06172839506172839,39.50617283950617,0)" xlink:href="#aJ"/><use transform="matrix(0.06172839506172839,0,0,0.06172839506172839,44.382716049382715,0)" xlink:href="#aQ"/><use transform="matrix(0.06172839506172839,0,0,0.06172839506172839,55.49382716049382,0)" xlink:href="#aR"/><use transform="matrix(0.06172839506172839,0,0,0.06172839506172839,66.60493827160494,0)" xlink:href="#ay"/></g><g id="I"><use transform="matrix(0.06172839506172839,0,0,0.06172839506172839,0,0)" xlink:href="#aw"/><use transform="matrix(0.06172839506172839,0,0,0.06172839506172839,11.11111111111111,0)" xlink:href="#ar"/><use transform="matrix(0.06172839506172839,0,0,0.06172839506172839,17.28395061728395,0)" xlink:href="#at"/><use transform="matrix(0.06172839506172839,0,0,0.06172839506172839,29.629629629629626,0)" xlink:href="#au"/><use transform="matrix(0.06172839506172839,0,0,0.06172839506172839,36.9753086419753,0)" xlink:href="#ay"/></g><path d="M84 4C-5 8 30-112 23-190h32v120c0 31 7 50 39 49 72-2 45-101 50-169h31l1 190h-30c-1-10 1-25-2-33-11 22-28 36-60 37" id="aS"/><g id="J"><use transform="matrix(0.06172839506172839,0,0,0.06172839506172839,0,0)" xlink:href="#ax"/><use transform="matrix(0.06172839506172839,0,0,0.06172839506172839,12.345679012345679,0)" xlink:href="#aq"/><use transform="matrix(0.06172839506172839,0,0,0.06172839506172839,17.22222222222222,0)" xlink:href="#az"/><use transform="matrix(0.06172839506172839,0,0,0.06172839506172839,28.333333333333332,0)" xlink:href="#ar"/><use transform="matrix(0.06172839506172839,0,0,0.06172839506172839,34.50617283950617,0)" xlink:href="#aS"/><use transform="matrix(0.06172839506172839,0,0,0.06172839506172839,46.85185185185185,0)" xlink:href="#au"/><use transform="matrix(0.06172839506172839,0,0,0.06172839506172839,54.197530864197525,0)" xlink:href="#ay"/></g><g id="K"><use transform="matrix(0.06172839506172839,0,0,0.06172839506172839,0,0)" xlink:href="#ap"/><use transform="matrix(0.06172839506172839,0,0,0.06172839506172839,12.345679012345679,0)" xlink:href="#ar"/></g><g id="L"><use transform="matrix(0.06172839506172839,0,0,0.06172839506172839,0,0)" xlink:href="#ay"/><use transform="matrix(0.06172839506172839,0,0,0.06172839506172839,12.345679012345679,0)" xlink:href="#aN"/><use transform="matrix(0.06172839506172839,0,0,0.06172839506172839,23.45679012345679,0)" xlink:href="#ay"/><use transform="matrix(0.06172839506172839,0,0,0.06172839506172839,35.80246913580247,0)" xlink:href="#au"/><use transform="matrix(0.06172839506172839,0,0,0.06172839506172839,43.148148148148145,0)" xlink:href="#aQ"/></g><g id="M"><use transform="matrix(0.06172839506172839,0,0,0.06172839506172839,0,0)" xlink:href="#aw"/><use transform="matrix(0.06172839506172839,0,0,0.06172839506172839,11.11111111111111,0)" xlink:href="#ar"/><use transform="matrix(0.06172839506172839,0,0,0.06172839506172839,17.28395061728395,0)" xlink:href="#ay"/><use transform="matrix(0.06172839506172839,0,0,0.06172839506172839,29.629629629629626,0)" xlink:href="#ax"/></g><path d="M212-179c-10-28-35-45-73-45-59 0-87 40-87 99 0 60 29 101 89 101 43 0 62-24 78-52l27 14C228-24 195 4 139 4 59 4 22-46 18-125c-6-104 99-153 187-111 19 9 31 26 39 46" id="aT"/><g id="N"><use transform="matrix(0.06172839506172839,0,0,0.06172839506172839,0,0)" xlink:href="#aT"/><use transform="matrix(0.06172839506172839,0,0,0.06172839506172839,15.987654320987653,0)" xlink:href="#aK"/><use transform="matrix(0.06172839506172839,0,0,0.06172839506172839,28.333333333333332,0)" xlink:href="#ay"/><use transform="matrix(0.06172839506172839,0,0,0.06172839506172839,40.67901234567901,0)" xlink:href="#az"/><use transform="matrix(0.06172839506172839,0,0,0.06172839506172839,51.79012345679013,0)" xlink:href="#aA"/></g><path d="M197 0v-115H63V0H30v-248h33v105h134v-105h34V0h-34" id="aU"/><g id="O"><use transform="matrix(0.06172839506172839,0,0,0.06172839506172839,0,0)" xlink:href="#aU"/><use transform="matrix(0.06172839506172839,0,0,0.06172839506172839,15.987654320987653,0)" xlink:href="#ap"/><use transform="matrix(0.06172839506172839,0,0,0.06172839506172839,28.333333333333332,0)" xlink:href="#aR"/><use transform="matrix(0.06172839506172839,0,0,0.06172839506172839,39.44444444444444,0)" xlink:href="#ap"/><use transform="matrix(0.06172839506172839,0,0,0.06172839506172839,51.79012345679012,0)" xlink:href="#au"/><use transform="matrix(0.06172839506172839,0,0,0.06172839506172839,59.1358024691358,0)" xlink:href="#aM"/><use transform="matrix(0.06172839506172839,0,0,0.06172839506172839,71.48148148148148,0)" xlink:href="#at"/><use transform="matrix(0.06172839506172839,0,0,0.06172839506172839,83.82716049382717,0)" xlink:href="#aS"/><use transform="matrix(0.06172839506172839,0,0,0.06172839506172839,96.17283950617285,0)" xlink:href="#aw"/></g><path d="M24-231v-30h32v30H24zM-9 49c24 4 33-6 33-30v-209h32V24c2 40-23 58-65 49V49" id="aV"/><g id="P"><use transform="matrix(0.06172839506172839,0,0,0.06172839506172839,0,0)" xlink:href="#at"/><use transform="matrix(0.06172839506172839,0,0,0.06172839506172839,12.345679012345679,0)" xlink:href="#aG"/><use transform="matrix(0.06172839506172839,0,0,0.06172839506172839,24.691358024691358,0)" xlink:href="#aV"/><use transform="matrix(0.06172839506172839,0,0,0.06172839506172839,29.5679012345679,0)" xlink:href="#ay"/><use transform="matrix(0.06172839506172839,0,0,0.06172839506172839,41.913580246913575,0)" xlink:href="#az"/><use transform="matrix(0.06172839506172839,0,0,0.06172839506172839,53.02469135802468,0)" xlink:href="#ar"/></g><g id="Q"><use transform="matrix(0.06172839506172839,0,0,0.06172839506172839,0,0)" xlink:href="#aq"/><use transform="matrix(0.06172839506172839,0,0,0.06172839506172839,4.876543209876543,0)" xlink:href="#av"/></g><g id="R"><use transform="matrix(0.06172839506172839,0,0,0.06172839506172839,0,0)" xlink:href="#ax"/><use transform="matrix(0.06172839506172839,0,0,0.06172839506172839,12.345679012345679,0)" xlink:href="#ap"/><use transform="matrix(0.06172839506172839,0,0,0.06172839506172839,24.691358024691358,0)" xlink:href="#ar"/><use transform="matrix(0.06172839506172839,0,0,0.06172839506172839,30.864197530864196,0)" xlink:href="#aK"/></g><g id="S"><use transform="matrix(0.06172839506172839,0,0,0.06172839506172839,0,0)" xlink:href="#aH"/><use transform="matrix(0.06172839506172839,0,0,0.06172839506172839,18.456790123456788,0)" xlink:href="#aq"/><use transform="matrix(0.06172839506172839,0,0,0.06172839506172839,23.33333333333333,0)" xlink:href="#aw"/><use transform="matrix(0.06172839506172839,0,0,0.06172839506172839,34.44444444444444,0)" xlink:href="#ap"/><use transform="matrix(0.06172839506172839,0,0,0.06172839506172839,46.79012345679012,0)" xlink:href="#aJ"/><use transform="matrix(0.06172839506172839,0,0,0.06172839506172839,51.666666666666664,0)" xlink:href="#aq"/><use transform="matrix(0.06172839506172839,0,0,0.06172839506172839,56.54320987654321,0)" xlink:href="#aI"/><use transform="matrix(0.06172839506172839,0,0,0.06172839506172839,68.88888888888889,0)" xlink:href="#av"/><use transform="matrix(0.06172839506172839,0,0,0.06172839506172839,81.23456790123457,0)" xlink:href="#ay"/><use transform="matrix(0.06172839506172839,0,0,0.06172839506172839,93.58024691358025,0)" xlink:href="#aM"/></g><g id="T"><use transform="matrix(0.06172839506172839,0,0,0.06172839506172839,0,0)" xlink:href="#aG"/><use transform="matrix(0.06172839506172839,0,0,0.06172839506172839,12.345679012345679,0)" xlink:href="#ay"/><use transform="matrix(0.06172839506172839,0,0,0.06172839506172839,24.691358024691358,0)" xlink:href="#ap"/><use transform="matrix(0.06172839506172839,0,0,0.06172839506172839,37.03703703703704,0)" xlink:href="#aL"/><use transform="matrix(0.06172839506172839,0,0,0.06172839506172839,55.49382716049382,0)" xlink:href="#aw"/></g><g id="U"><use transform="matrix(0.06172839506172839,0,0,0.06172839506172839,0,0)" xlink:href="#az"/><use transform="matrix(0.06172839506172839,0,0,0.06172839506172839,11.11111111111111,0)" xlink:href="#au"/><use transform="matrix(0.06172839506172839,0,0,0.06172839506172839,18.45679012345679,0)" xlink:href="#ap"/><use transform="matrix(0.06172839506172839,0,0,0.06172839506172839,30.80246913580247,0)" xlink:href="#az"/><use transform="matrix(0.06172839506172839,0,0,0.06172839506172839,41.91358024691358,0)" xlink:href="#aA"/><use transform="matrix(0.06172839506172839,0,0,0.06172839506172839,53.0246913580247,0)" xlink:href="#aw"/></g><path d="M63-220v92h138v28H63V0H30v-248h175v28H63" id="aW"/><g id="V"><use transform="matrix(0.06172839506172839,0,0,0.06172839506172839,0,0)" xlink:href="#aW"/><use transform="matrix(0.06172839506172839,0,0,0.06172839506172839,13.518518518518517,0)" xlink:href="#at"/><use transform="matrix(0.06172839506172839,0,0,0.06172839506172839,25.864197530864196,0)" xlink:href="#aS"/><use transform="matrix(0.06172839506172839,0,0,0.06172839506172839,38.20987654320987,0)" xlink:href="#av"/><use transform="matrix(0.06172839506172839,0,0,0.06172839506172839,50.55555555555555,0)" xlink:href="#aM"/></g><path d="M103-251c84 0 111 97 45 133-19 10-37 24-39 52H78c0-63 77-55 77-114 0-30-21-42-52-43-32 0-53 17-56 46l-32-2c7-45 34-72 88-72zM77 0v-35h34V0H77" id="aX"/><use transform="matrix(0.06172839506172839,0,0,0.06172839506172839,0,0)" xlink:href="#aX" id="W"/><path fill="#333" d="M146-102V0H94v-102L6-248h54l60 105 60-105h54" id="aY"/><path fill="#333" d="M185-48c-13 30-37 53-82 52C43 2 14-33 14-96s30-98 90-98c62 0 83 45 84 108H66c0 31 8 55 39 56 18 0 30-7 34-22zm-45-69c5-46-57-63-70-21-2 6-4 13-4 21h74" id="aZ"/><path fill="#333" d="M137-138c1-29-70-34-71-4 15 46 118 7 119 86 1 83-164 76-172 9l43-7c4 19 20 25 44 25 33 8 57-30 24-41C81-84 22-81 20-136c-2-80 154-74 161-7" id="ba"/><g id="X"><use transform="matrix(0.04938271604938272,0,0,0.04938271604938272,0,0)" xlink:href="#aY"/><use transform="matrix(0.04938271604938272,0,0,0.04938271604938272,10.864197530864198,0)" xlink:href="#aZ"/><use transform="matrix(0.04938271604938272,0,0,0.04938271604938272,20.74074074074074,0)" xlink:href="#ba"/></g><path fill="#333" d="M175 0L67-191c6 58 2 128 3 191H24v-248h59L193-55c-6-58-2-129-3-193h46V0h-61" id="bb"/><path fill="#333" d="M110-194c64 0 96 36 96 99 0 64-35 99-97 99-61 0-95-36-95-99 0-62 34-99 96-99zm-1 164c35 0 45-28 45-65 0-40-10-65-43-65-34 0-45 26-45 65 0 36 10 65 43 65" id="bc"/><g id="Y"><use transform="matrix(0.04938271604938272,0,0,0.04938271604938272,0,0)" xlink:href="#bb"/><use transform="matrix(0.04938271604938272,0,0,0.04938271604938272,12.790123456790125,0)" xlink:href="#bc"/></g><path d="M175 0L67-191c6 58 2 128 3 191H24v-248h59L193-55c-6-58-2-129-3-193h46V0h-61" id="bd"/><path d="M110-194c64 0 96 36 96 99 0 64-35 99-97 99-61 0-95-36-95-99 0-62 34-99 96-99zm-1 164c35 0 45-28 45-65 0-40-10-65-43-65-34 0-45 26-45 65 0 36 10 65 43 65" id="be"/><g id="Z"><use transform="matrix(0.04938271604938272,0,0,0.04938271604938272,0,0)" xlink:href="#bd"/><use transform="matrix(0.04938271604938272,0,0,0.04938271604938272,12.790123456790125,0)" xlink:href="#be"/></g><g id="aa"><use transform="matrix(0.06172839506172839,0,0,0.06172839506172839,0,0)" xlink:href="#aP"/><use transform="matrix(0.06172839506172839,0,0,0.06172839506172839,14.814814814814813,0)" xlink:href="#aI"/><use transform="matrix(0.06172839506172839,0,0,0.06172839506172839,27.160493827160494,0)" xlink:href="#aI"/><use transform="matrix(0.06172839506172839,0,0,0.06172839506172839,39.50617283950617,0)" xlink:href="#au"/><use transform="matrix(0.06172839506172839,0,0,0.06172839506172839,46.85185185185185,0)" xlink:href="#ay"/><use transform="matrix(0.06172839506172839,0,0,0.06172839506172839,59.197530864197525,0)" xlink:href="#aI"/><use transform="matrix(0.06172839506172839,0,0,0.06172839506172839,71.5432098765432,0)" xlink:href="#ap"/><use transform="matrix(0.06172839506172839,0,0,0.06172839506172839,83.88888888888889,0)" xlink:href="#ar"/><use transform="matrix(0.06172839506172839,0,0,0.06172839506172839,90.06172839506172,0)" xlink:href="#ay"/></g><g id="ab"><use transform="matrix(0.06172839506172839,0,0,0.06172839506172839,0,0)" xlink:href="#aL"/><use transform="matrix(0.06172839506172839,0,0,0.06172839506172839,18.456790123456788,0)" xlink:href="#ay"/><use transform="matrix(0.06172839506172839,0,0,0.06172839506172839,30.80246913580247,0)" xlink:href="#aw"/><use transform="matrix(0.06172839506172839,0,0,0.06172839506172839,41.91358024691358,0)" xlink:href="#aw"/><use transform="matrix(0.06172839506172839,0,0,0.06172839506172839,53.0246913580247,0)" xlink:href="#ap"/><use transform="matrix(0.06172839506172839,0,0,0.06172839506172839,65.37037037037038,0)" xlink:href="#aI"/><use transform="matrix(0.06172839506172839,0,0,0.06172839506172839,77.71604938271606,0)" xlink:href="#ay"/><use transform="matrix(0.06172839506172839,0,0,0.06172839506172839,90.06172839506175,0)" xlink:href="#aw"/></g><path d="M30-248c87 1 191-15 191 75 0 78-77 80-158 76V0H30v-248zm33 125c57 0 124 11 124-50 0-59-68-47-124-48v98" id="bf"/><g id="ac"><use transform="matrix(0.06172839506172839,0,0,0.06172839506172839,0,0)" xlink:href="#bf"/><use transform="matrix(0.06172839506172839,0,0,0.06172839506172839,14.814814814814813,0)" xlink:href="#aS"/><use transform="matrix(0.06172839506172839,0,0,0.06172839506172839,27.160493827160494,0)" xlink:href="#aG"/><use transform="matrix(0.06172839506172839,0,0,0.06172839506172839,39.50617283950617,0)" xlink:href="#aJ"/><use transform="matrix(0.06172839506172839,0,0,0.06172839506172839,44.382716049382715,0)" xlink:href="#aq"/><use transform="matrix(0.06172839506172839,0,0,0.06172839506172839,49.25925925925926,0)" xlink:href="#aw"/><use transform="matrix(0.06172839506172839,0,0,0.06172839506172839,60.37037037037037,0)" xlink:href="#aK"/></g><g id="ad"><use transform="matrix(0.06172839506172839,0,0,0.06172839506172839,0,0)" xlink:href="#aJ"/><use transform="matrix(0.06172839506172839,0,0,0.06172839506172839,4.876543209876543,0)" xlink:href="#at"/><use transform="matrix(0.06172839506172839,0,0,0.06172839506172839,17.22222222222222,0)" xlink:href="#aI"/></g><path d="M126-127c33 6 58 20 58 59 0 88-139 92-164 29-3-8-5-16-6-25l32-3c6 27 21 44 54 44 32 0 52-15 52-46 0-38-36-46-79-43v-28c39 1 72-4 72-42 0-27-17-43-46-43-28 0-47 15-49 41l-32-3c6-42 35-63 81-64 48-1 79 21 79 65 0 36-21 52-52 59" id="bg"/><g id="ae"><use transform="matrix(0.06172839506172839,0,0,0.06172839506172839,0,0)" xlink:href="#bg"/><use transform="matrix(0.06172839506172839,0,0,0.06172839506172839,12.345679012345679,0)" xlink:href="#au"/><use transform="matrix(0.06172839506172839,0,0,0.06172839506172839,19.691358024691358,0)" xlink:href="#aM"/></g><g id="af"><use transform="matrix(0.06172839506172839,0,0,0.06172839506172839,0,0)" xlink:href="#bf"/><use transform="matrix(0.06172839506172839,0,0,0.06172839506172839,14.814814814814813,0)" xlink:href="#ap"/><use transform="matrix(0.06172839506172839,0,0,0.06172839506172839,27.160493827160494,0)" xlink:href="#au"/><use transform="matrix(0.06172839506172839,0,0,0.06172839506172839,34.50617283950617,0)" xlink:href="#ar"/><use transform="matrix(0.06172839506172839,0,0,0.06172839506172839,40.67901234567901,0)" xlink:href="#aQ"/></g><g id="ag"><use transform="matrix(0.06172839506172839,0,0,0.06172839506172839,0,0)" xlink:href="#aT"/><use transform="matrix(0.06172839506172839,0,0,0.06172839506172839,15.987654320987653,0)" xlink:href="#at"/><use transform="matrix(0.06172839506172839,0,0,0.06172839506172839,28.333333333333332,0)" xlink:href="#aL"/><use transform="matrix(0.06172839506172839,0,0,0.06172839506172839,46.79012345679012,0)" xlink:href="#aL"/><use transform="matrix(0.06172839506172839,0,0,0.06172839506172839,65.24691358024691,0)" xlink:href="#aX"/></g><g id="ah"><use transform="matrix(0.06172839506172839,0,0,0.06172839506172839,0,0)" xlink:href="#aj"/><use transform="matrix(0.06172839506172839,0,0,0.06172839506172839,14.814814814814813,0)" xlink:href="#ay"/><use transform="matrix(0.06172839506172839,0,0,0.06172839506172839,27.160493827160494,0)" xlink:href="#av"/><use transform="matrix(0.06172839506172839,0,0,0.06172839506172839,39.50617283950617,0)" xlink:href="#aM"/></g><g id="ai"><use transform="matrix(0.06172839506172839,0,0,0.06172839506172839,0,0)" xlink:href="#aF"/><use transform="matrix(0.06172839506172839,0,0,0.06172839506172839,15.987654320987653,0)" xlink:href="#ay"/><use transform="matrix(0.06172839506172839,0,0,0.06172839506172839,28.333333333333332,0)" xlink:href="#ap"/><use transform="matrix(0.06172839506172839,0,0,0.06172839506172839,40.67901234567901,0)" xlink:href="#az"/><use transform="matrix(0.06172839506172839,0,0,0.06172839506172839,51.79012345679013,0)" xlink:href="#aK"/><use transform="matrix(0.06172839506172839,0,0,0.06172839506172839,64.13580246913581,0)" xlink:href="#ay"/><use transform="matrix(0.06172839506172839,0,0,0.06172839506172839,76.4814814814815,0)" xlink:href="#aM"/></g></defs></g></svg>